<svg xmlns="http://www.w3.org/2000/svg" xmlns:xlink="http://www.w3.org/1999/xlink" width="1080" zoomAndPan="magnify" viewBox="0 0 810 809.999993" height="1080" preserveAspectRatio="xMidYMid meet" version="1.0"><defs><clipPath id="bf68b2e325"><path d="M 21.328125 378 L 787 378 L 787 432 L 21.328125 432 Z M 21.328125 378 " clip-rule="nonzero"/></clipPath><clipPath id="fb7e9a4b3a"><path d="M 21.328125 92 L 360 92 L 360 718 L 21.328125 718 Z M 21.328125 92 " clip-rule="nonzero"/></clipPath><clipPath id="704c9a107d"><path d="M 21.328125 378 L 787 378 L 787 432 L 21.328125 432 Z M 21.328125 378 " clip-rule="nonzero"/></clipPath><clipPath id="d3fd49ff8e"><path d="M 21.328125 92 L 360 92 L 360 718 L 21.328125 718 Z M 21.328125 92 " clip-rule="nonzero"/></clipPath><clipPath id="a433d50c09"><path d="M 21.328125 378 L 787 378 L 787 432 L 21.328125 432 Z M 21.328125 378 " clip-rule="nonzero"/></clipPath><clipPath id="2fc2c09d37"><path d="M 21.328125 92 L 360 92 L 360 718 L 21.328125 718 Z M 21.328125 92 " clip-rule="nonzero"/></clipPath></defs><g clip-path="url(#bf68b2e325)"><path fill="#ffffff" d="M 760.117188 431.761719 L 46.308594 431.761719 C 45.433594 431.761719 44.558594 431.71875 43.6875 431.632812 C 42.8125 431.546875 41.949219 431.417969 41.085938 431.246094 C 40.226562 431.078125 39.378906 430.863281 38.539062 430.609375 C 37.699219 430.355469 36.875 430.058594 36.066406 429.722656 C 35.257812 429.390625 34.464844 429.015625 33.691406 428.601562 C 32.917969 428.1875 32.167969 427.738281 31.4375 427.25 C 30.710938 426.761719 30.007812 426.242188 29.328125 425.6875 C 28.652344 425.128906 28 424.542969 27.382812 423.921875 C 26.761719 423.300781 26.175781 422.652344 25.617188 421.976562 C 25.0625 421.296875 24.539062 420.59375 24.054688 419.867188 C 23.566406 419.136719 23.117188 418.386719 22.703125 417.613281 C 22.289062 416.839844 21.914062 416.046875 21.578125 415.238281 C 21.242188 414.429688 20.949219 413.601562 20.695312 412.765625 C 20.441406 411.925781 20.226562 411.074219 20.054688 410.214844 C 19.886719 409.355469 19.757812 408.492188 19.671875 407.617188 C 19.585938 406.746094 19.542969 405.871094 19.542969 404.992188 C 19.542969 404.117188 19.585938 403.242188 19.671875 402.371094 C 19.757812 401.496094 19.886719 400.632812 20.054688 399.773438 C 20.226562 398.914062 20.441406 398.0625 20.695312 397.222656 C 20.949219 396.386719 21.242188 395.558594 21.578125 394.75 C 21.914062 393.941406 22.289062 393.148438 22.703125 392.375 C 23.117188 391.601562 23.566406 390.851562 24.054688 390.121094 C 24.539062 389.394531 25.0625 388.691406 25.617188 388.011719 C 26.175781 387.335938 26.761719 386.6875 27.382812 386.066406 C 28 385.445312 28.652344 384.859375 29.328125 384.300781 C 30.007812 383.746094 30.710938 383.222656 31.4375 382.738281 C 32.167969 382.25 32.917969 381.800781 33.691406 381.386719 C 34.464844 380.972656 35.257812 380.597656 36.066406 380.265625 C 36.875 379.929688 37.699219 379.632812 38.539062 379.378906 C 39.378906 379.125 40.226562 378.910156 41.085938 378.742188 C 41.949219 378.570312 42.8125 378.441406 43.6875 378.355469 C 44.558594 378.269531 45.433594 378.226562 46.308594 378.226562 L 760.117188 378.226562 C 760.996094 378.226562 761.867188 378.269531 762.742188 378.355469 C 763.613281 378.441406 764.480469 378.570312 765.339844 378.742188 C 766.199219 378.910156 767.050781 379.125 767.886719 379.378906 C 768.726562 379.632812 769.550781 379.929688 770.359375 380.265625 C 771.171875 380.597656 771.960938 380.972656 772.734375 381.386719 C 773.507812 381.800781 774.261719 382.25 774.988281 382.738281 C 775.71875 383.222656 776.421875 383.746094 777.097656 384.300781 C 777.777344 384.859375 778.425781 385.445312 779.046875 386.066406 C 779.664062 386.6875 780.253906 387.335938 780.808594 388.011719 C 781.367188 388.691406 781.886719 389.394531 782.375 390.121094 C 782.859375 390.851562 783.3125 391.601562 783.726562 392.375 C 784.136719 393.148438 784.511719 393.941406 784.847656 394.75 C 785.183594 395.558594 785.476562 396.386719 785.734375 397.222656 C 785.988281 398.0625 786.199219 398.914062 786.371094 399.773438 C 786.542969 400.632812 786.671875 401.496094 786.757812 402.371094 C 786.84375 403.242188 786.886719 404.117188 786.886719 404.992188 C 786.886719 405.871094 786.84375 406.746094 786.757812 407.617188 C 786.671875 408.492188 786.542969 409.355469 786.371094 410.214844 C 786.199219 411.074219 785.988281 411.925781 785.734375 412.765625 C 785.476562 413.601562 785.183594 414.429688 784.847656 415.238281 C 784.511719 416.046875 784.136719 416.839844 783.726562 417.613281 C 783.3125 418.386719 782.859375 419.136719 782.375 419.867188 C 781.886719 420.59375 781.367188 421.296875 780.808594 421.976562 C 780.253906 422.652344 779.664062 423.300781 779.046875 423.921875 C 778.425781 424.542969 777.777344 425.128906 777.097656 425.6875 C 776.421875 426.242188 775.71875 426.761719 774.988281 427.25 C 774.261719 427.738281 773.507812 428.1875 772.734375 428.601562 C 771.960938 429.015625 771.171875 429.390625 770.359375 429.722656 C 769.550781 430.058594 768.726562 430.355469 767.886719 430.609375 C 767.050781 430.863281 766.199219 431.078125 765.339844 431.246094 C 764.480469 431.417969 763.613281 431.546875 762.742188 431.632812 C 761.867188 431.71875 760.996094 431.761719 760.117188 431.761719 Z M 760.117188 431.761719 " fill-opacity="1" fill-rule="nonzero"/></g><g clip-path="url(#fb7e9a4b3a)"><path fill="#ffffff" d="M 331.832031 717.285156 C 330.074219 717.289062 328.332031 717.121094 326.609375 716.78125 C 324.886719 716.4375 323.210938 715.929688 321.585938 715.257812 C 319.964844 714.582031 318.421875 713.753906 316.964844 712.773438 C 315.503906 711.796875 314.15625 710.679688 312.917969 709.433594 L 27.394531 423.910156 C 26.773438 423.289062 26.183594 422.644531 25.628906 421.964844 C 25.074219 421.289062 24.550781 420.585938 24.0625 419.859375 C 23.578125 419.128906 23.125 418.378906 22.710938 417.605469 C 22.300781 416.832031 21.925781 416.042969 21.589844 415.234375 C 21.253906 414.421875 20.957031 413.597656 20.703125 412.761719 C 20.449219 411.921875 20.234375 411.074219 20.066406 410.214844 C 19.894531 409.355469 19.765625 408.488281 19.679688 407.617188 C 19.59375 406.746094 19.550781 405.871094 19.550781 404.996094 C 19.550781 404.117188 19.59375 403.242188 19.679688 402.371094 C 19.765625 401.5 19.894531 400.632812 20.066406 399.773438 C 20.234375 398.914062 20.449219 398.066406 20.703125 397.226562 C 20.957031 396.390625 21.253906 395.566406 21.589844 394.753906 C 21.925781 393.945312 22.300781 393.15625 22.710938 392.382812 C 23.125 391.609375 23.578125 390.859375 24.0625 390.128906 C 24.550781 389.402344 25.074219 388.699219 25.628906 388.023438 C 26.183594 387.34375 26.773438 386.699219 27.394531 386.078125 L 312.917969 100.554688 C 313.527344 99.898438 314.171875 99.277344 314.84375 98.683594 C 315.519531 98.09375 316.21875 97.539062 316.949219 97.015625 C 317.679688 96.496094 318.433594 96.011719 319.210938 95.566406 C 319.988281 95.121094 320.789062 94.71875 321.605469 94.351562 C 322.425781 93.988281 323.261719 93.664062 324.109375 93.382812 C 324.960938 93.101562 325.824219 92.867188 326.699219 92.671875 C 327.574219 92.476562 328.457031 92.328125 329.347656 92.222656 C 330.238281 92.117188 331.132812 92.054688 332.027344 92.039062 C 332.925781 92.023438 333.820312 92.054688 334.710938 92.128906 C 335.605469 92.203125 336.492188 92.320312 337.375 92.484375 C 338.257812 92.644531 339.128906 92.851562 339.988281 93.105469 C 340.847656 93.355469 341.695312 93.648438 342.527344 93.984375 C 343.355469 94.320312 344.167969 94.695312 344.960938 95.113281 C 345.753906 95.53125 346.527344 95.988281 347.273438 96.480469 C 348.019531 96.976562 348.742188 97.507812 349.4375 98.074219 C 350.128906 98.640625 350.792969 99.242188 351.429688 99.875 C 352.0625 100.507812 352.664062 101.171875 353.230469 101.867188 C 353.796875 102.5625 354.328125 103.28125 354.824219 104.03125 C 355.316406 104.777344 355.773438 105.546875 356.191406 106.339844 C 356.609375 107.136719 356.984375 107.945312 357.320312 108.777344 C 357.65625 109.609375 357.949219 110.457031 358.199219 111.316406 C 358.449219 112.175781 358.65625 113.046875 358.820312 113.929688 C 358.984375 114.808594 359.101562 115.699219 359.175781 116.589844 C 359.25 117.484375 359.28125 118.378906 359.265625 119.277344 C 359.25 120.171875 359.1875 121.066406 359.082031 121.957031 C 358.976562 122.84375 358.828125 123.726562 358.632812 124.601562 C 358.4375 125.476562 358.199219 126.339844 357.917969 127.191406 C 357.640625 128.042969 357.316406 128.878906 356.949219 129.699219 C 356.585938 130.515625 356.179688 131.316406 355.734375 132.09375 C 355.292969 132.871094 354.808594 133.625 354.289062 134.355469 C 353.765625 135.085938 353.210938 135.785156 352.621094 136.460938 C 352.027344 137.132812 351.40625 137.777344 350.75 138.386719 L 84.175781 404.992188 L 350.75 671.601562 C 351.679688 672.53125 352.535156 673.527344 353.316406 674.582031 C 354.101562 675.640625 354.800781 676.75 355.421875 677.910156 C 356.042969 679.070312 356.574219 680.269531 357.015625 681.507812 C 357.457031 682.746094 357.808594 684.011719 358.0625 685.300781 C 358.320312 686.59375 358.480469 687.894531 358.546875 689.207031 C 358.609375 690.523438 358.578125 691.832031 358.449219 693.144531 C 358.320312 694.453125 358.09375 695.746094 357.773438 697.019531 C 357.457031 698.296875 357.042969 699.542969 356.539062 700.757812 C 356.039062 701.972656 355.449219 703.144531 354.773438 704.273438 C 354.097656 705.402344 353.339844 706.476562 352.507812 707.492188 C 351.671875 708.507812 350.769531 709.460938 349.792969 710.34375 C 348.820312 711.226562 347.785156 712.035156 346.691406 712.765625 C 345.597656 713.496094 344.457031 714.144531 343.269531 714.707031 C 342.078125 715.273438 340.855469 715.746094 339.597656 716.128906 C 338.339844 716.511719 337.058594 716.796875 335.757812 716.992188 C 334.457031 717.1875 333.148438 717.285156 331.832031 717.285156 Z M 331.832031 717.285156 " fill-opacity="1" fill-rule="nonzero"/></g><g clip-path="url(#704c9a107d)"><path fill="#ffffff" d="M 760.117188 431.761719 L 46.308594 431.761719 C 45.433594 431.761719 44.558594 431.71875 43.6875 431.632812 C 42.8125 431.546875 41.949219 431.417969 41.085938 431.246094 C 40.226562 431.078125 39.378906 430.863281 38.539062 430.609375 C 37.699219 430.355469 36.875 430.058594 36.066406 429.722656 C 35.257812 429.390625 34.464844 429.015625 33.691406 428.601562 C 32.917969 428.1875 32.167969 427.738281 31.4375 427.25 C 30.710938 426.761719 30.007812 426.242188 29.328125 425.6875 C 28.652344 425.128906 28 424.542969 27.382812 423.921875 C 26.761719 423.300781 26.175781 422.652344 25.617188 421.976562 C 25.0625 421.296875 24.539062 420.59375 24.054688 419.867188 C 23.566406 419.136719 23.117188 418.386719 22.703125 417.613281 C 22.289062 416.839844 21.914062 416.046875 21.578125 415.238281 C 21.242188 414.429688 20.949219 413.601562 20.695312 412.765625 C 20.441406 411.925781 20.226562 411.074219 20.054688 410.214844 C 19.886719 409.355469 19.757812 408.492188 19.671875 407.617188 C 19.585938 406.746094 19.542969 405.871094 19.542969 404.992188 C 19.542969 404.117188 19.585938 403.242188 19.671875 402.371094 C 19.757812 401.496094 19.886719 400.632812 20.054688 399.773438 C 20.226562 398.914062 20.441406 398.0625 20.695312 397.222656 C 20.949219 396.386719 21.242188 395.558594 21.578125 394.75 C 21.914062 393.941406 22.289062 393.148438 22.703125 392.375 C 23.117188 391.601562 23.566406 390.851562 24.054688 390.121094 C 24.539062 389.394531 25.0625 388.691406 25.617188 388.011719 C 26.175781 387.335938 26.761719 386.6875 27.382812 386.066406 C 28 385.445312 28.652344 384.859375 29.328125 384.300781 C 30.007812 383.746094 30.710938 383.222656 31.4375 382.738281 C 32.167969 382.25 32.917969 381.800781 33.691406 381.386719 C 34.464844 380.972656 35.257812 380.597656 36.066406 380.265625 C 36.875 379.929688 37.699219 379.632812 38.539062 379.378906 C 39.378906 379.125 40.226562 378.910156 41.085938 378.742188 C 41.949219 378.570312 42.8125 378.441406 43.6875 378.355469 C 44.558594 378.269531 45.433594 378.226562 46.308594 378.226562 L 760.117188 378.226562 C 760.996094 378.226562 761.867188 378.269531 762.742188 378.355469 C 763.613281 378.441406 764.480469 378.570312 765.339844 378.742188 C 766.199219 378.910156 767.050781 379.125 767.886719 379.378906 C 768.726562 379.632812 769.550781 379.929688 770.359375 380.265625 C 771.171875 380.597656 771.960938 380.972656 772.734375 381.386719 C 773.507812 381.800781 774.261719 382.25 774.988281 382.738281 C 775.71875 383.222656 776.421875 383.746094 777.097656 384.300781 C 777.777344 384.859375 778.425781 385.445312 779.046875 386.066406 C 779.664062 386.6875 780.253906 387.335938 780.808594 388.011719 C 781.367188 388.691406 781.886719 389.394531 782.375 390.121094 C 782.859375 390.851562 783.3125 391.601562 783.726562 392.375 C 784.136719 393.148438 784.511719 393.941406 784.847656 394.75 C 785.183594 395.558594 785.476562 396.386719 785.734375 397.222656 C 785.988281 398.0625 786.199219 398.914062 786.371094 399.773438 C 786.542969 400.632812 786.671875 401.496094 786.757812 402.371094 C 786.84375 403.242188 786.886719 404.117188 786.886719 404.992188 C 786.886719 405.871094 786.84375 406.746094 786.757812 407.617188 C 786.671875 408.492188 786.542969 409.355469 786.371094 410.214844 C 786.199219 411.074219 785.988281 411.925781 785.734375 412.765625 C 785.476562 413.601562 785.183594 414.429688 784.847656 415.238281 C 784.511719 416.046875 784.136719 416.839844 783.726562 417.613281 C 783.3125 418.386719 782.859375 419.136719 782.375 419.867188 C 781.886719 420.59375 781.367188 421.296875 780.808594 421.976562 C 780.253906 422.652344 779.664062 423.300781 779.046875 423.921875 C 778.425781 424.542969 777.777344 425.128906 777.097656 425.6875 C 776.421875 426.242188 775.71875 426.761719 774.988281 427.25 C 774.261719 427.738281 773.507812 428.1875 772.734375 428.601562 C 771.960938 429.015625 771.171875 429.390625 770.359375 429.722656 C 769.550781 430.058594 768.726562 430.355469 767.886719 430.609375 C 767.050781 430.863281 766.199219 431.078125 765.339844 431.246094 C 764.480469 431.417969 763.613281 431.546875 762.742188 431.632812 C 761.867188 431.71875 760.996094 431.761719 760.117188 431.761719 Z M 760.117188 431.761719 " fill-opacity="1" fill-rule="nonzero"/></g><g clip-path="url(#d3fd49ff8e)"><path fill="#ffffff" d="M 331.832031 717.285156 C 330.074219 717.289062 328.332031 717.121094 326.609375 716.78125 C 324.886719 716.4375 323.210938 715.929688 321.585938 715.257812 C 319.964844 714.582031 318.421875 713.753906 316.964844 712.773438 C 315.503906 711.796875 314.15625 710.679688 312.917969 709.433594 L 27.394531 423.910156 C 26.773438 423.289062 26.183594 422.644531 25.628906 421.964844 C 25.074219 421.289062 24.550781 420.585938 24.0625 419.859375 C 23.578125 419.128906 23.125 418.378906 22.710938 417.605469 C 22.300781 416.832031 21.925781 416.042969 21.589844 415.234375 C 21.253906 414.421875 20.957031 413.597656 20.703125 412.761719 C 20.449219 411.921875 20.234375 411.074219 20.066406 410.214844 C 19.894531 409.355469 19.765625 408.488281 19.679688 407.617188 C 19.59375 406.746094 19.550781 405.871094 19.550781 404.996094 C 19.550781 404.117188 19.59375 403.242188 19.679688 402.371094 C 19.765625 401.5 19.894531 400.632812 20.066406 399.773438 C 20.234375 398.914062 20.449219 398.066406 20.703125 397.226562 C 20.957031 396.390625 21.253906 395.566406 21.589844 394.753906 C 21.925781 393.945312 22.300781 393.15625 22.710938 392.382812 C 23.125 391.609375 23.578125 390.859375 24.0625 390.128906 C 24.550781 389.402344 25.074219 388.699219 25.628906 388.023438 C 26.183594 387.34375 26.773438 386.699219 27.394531 386.078125 L 312.917969 100.554688 C 313.527344 99.898438 314.171875 99.277344 314.84375 98.683594 C 315.519531 98.09375 316.21875 97.539062 316.949219 97.015625 C 317.679688 96.496094 318.433594 96.011719 319.210938 95.566406 C 319.988281 95.121094 320.789062 94.71875 321.605469 94.351562 C 322.425781 93.988281 323.261719 93.664062 324.109375 93.382812 C 324.960938 93.101562 325.824219 92.867188 326.699219 92.671875 C 327.574219 92.476562 328.457031 92.328125 329.347656 92.222656 C 330.238281 92.117188 331.132812 92.054688 332.027344 92.039062 C 332.925781 92.023438 333.820312 92.054688 334.710938 92.128906 C 335.605469 92.203125 336.492188 92.320312 337.375 92.484375 C 338.257812 92.644531 339.128906 92.851562 339.988281 93.105469 C 340.847656 93.355469 341.695312 93.648438 342.527344 93.984375 C 343.355469 94.320312 344.167969 94.695312 344.960938 95.113281 C 345.753906 95.53125 346.527344 95.988281 347.273438 96.480469 C 348.019531 96.976562 348.742188 97.507812 349.4375 98.074219 C 350.128906 98.640625 350.792969 99.242188 351.429688 99.875 C 352.0625 100.507812 352.664062 101.171875 353.230469 101.867188 C 353.796875 102.5625 354.328125 103.28125 354.824219 104.03125 C 355.316406 104.777344 355.773438 105.546875 356.191406 106.339844 C 356.609375 107.136719 356.984375 107.945312 357.320312 108.777344 C 357.65625 109.609375 357.949219 110.457031 358.199219 111.316406 C 358.449219 112.175781 358.65625 113.046875 358.820312 113.929688 C 358.984375 114.808594 359.101562 115.699219 359.175781 116.589844 C 359.25 117.484375 359.28125 118.378906 359.265625 119.277344 C 359.25 120.171875 359.1875 121.066406 359.082031 121.957031 C 358.976562 122.84375 358.828125 123.726562 358.632812 124.601562 C 358.4375 125.476562 358.199219 126.339844 357.917969 127.191406 C 357.640625 128.042969 357.316406 128.878906 356.949219 129.699219 C 356.585938 130.515625 356.179688 131.316406 355.734375 132.09375 C 355.292969 132.871094 354.808594 133.625 354.289062 134.355469 C 353.765625 135.085938 353.210938 135.785156 352.621094 136.460938 C 352.027344 137.132812 351.40625 137.777344 350.75 138.386719 L 84.175781 404.992188 L 350.75 671.601562 C 351.679688 672.53125 352.535156 673.527344 353.316406 674.582031 C 354.101562 675.640625 354.800781 676.75 355.421875 677.910156 C 356.042969 679.070312 356.574219 680.269531 357.015625 681.507812 C 357.457031 682.746094 357.808594 684.011719 358.0625 685.300781 C 358.320312 686.59375 358.480469 687.894531 358.546875 689.207031 C 358.609375 690.523438 358.578125 691.832031 358.449219 693.144531 C 358.320312 694.453125 358.09375 695.746094 357.773438 697.019531 C 357.457031 698.296875 357.042969 699.542969 356.539062 700.757812 C 356.039062 701.972656 355.449219 703.144531 354.773438 704.273438 C 354.097656 705.402344 353.339844 706.476562 352.507812 707.492188 C 351.671875 708.507812 350.769531 709.460938 349.792969 710.34375 C 348.820312 711.226562 347.785156 712.035156 346.691406 712.765625 C 345.597656 713.496094 344.457031 714.144531 343.269531 714.707031 C 342.078125 715.273438 340.855469 715.746094 339.597656 716.128906 C 338.339844 716.511719 337.058594 716.796875 335.757812 716.992188 C 334.457031 717.1875 333.148438 717.285156 331.832031 717.285156 Z M 331.832031 717.285156 " fill-opacity="1" fill-rule="nonzero"/></g><g clip-path="url(#a433d50c09)"><path fill="#ffffff" d="M 760.117188 431.761719 L 46.308594 431.761719 C 45.433594 431.761719 44.558594 431.71875 43.6875 431.632812 C 42.8125 431.546875 41.949219 431.417969 41.085938 431.246094 C 40.226562 431.078125 39.378906 430.863281 38.539062 430.609375 C 37.699219 430.355469 36.875 430.058594 36.066406 429.722656 C 35.257812 429.390625 34.464844 429.015625 33.691406 428.601562 C 32.917969 428.1875 32.167969 427.738281 31.4375 427.25 C 30.710938 426.761719 30.007812 426.242188 29.328125 425.6875 C 28.652344 425.128906 28 424.542969 27.382812 423.921875 C 26.761719 423.300781 26.175781 422.652344 25.617188 421.976562 C 25.0625 421.296875 24.539062 420.59375 24.054688 419.867188 C 23.566406 419.136719 23.117188 418.386719 22.703125 417.613281 C 22.289062 416.839844 21.914062 416.046875 21.578125 415.238281 C 21.242188 414.429688 20.949219 413.601562 20.695312 412.765625 C 20.441406 411.925781 20.226562 411.074219 20.054688 410.214844 C 19.886719 409.355469 19.757812 408.492188 19.671875 407.617188 C 19.585938 406.746094 19.542969 405.871094 19.542969 404.992188 C 19.542969 404.117188 19.585938 403.242188 19.671875 402.371094 C 19.757812 401.496094 19.886719 400.632812 20.054688 399.773438 C 20.226562 398.914062 20.441406 398.0625 20.695312 397.222656 C 20.949219 396.386719 21.242188 395.558594 21.578125 394.75 C 21.914062 393.941406 22.289062 393.148438 22.703125 392.375 C 23.117188 391.601562 23.566406 390.851562 24.054688 390.121094 C 24.539062 389.394531 25.0625 388.691406 25.617188 388.011719 C 26.175781 387.335938 26.761719 386.6875 27.382812 386.066406 C 28 385.445312 28.652344 384.859375 29.328125 384.300781 C 30.007812 383.746094 30.710938 383.222656 31.4375 382.738281 C 32.167969 382.25 32.917969 381.800781 33.691406 381.386719 C 34.464844 380.972656 35.257812 380.597656 36.066406 380.265625 C 36.875 379.929688 37.699219 379.632812 38.539062 379.378906 C 39.378906 379.125 40.226562 378.910156 41.085938 378.742188 C 41.949219 378.570312 42.8125 378.441406 43.6875 378.355469 C 44.558594 378.269531 45.433594 378.226562 46.308594 378.226562 L 760.117188 378.226562 C 760.996094 378.226562 761.867188 378.269531 762.742188 378.355469 C 763.613281 378.441406 764.480469 378.570312 765.339844 378.742188 C 766.199219 378.910156 767.050781 379.125 767.886719 379.378906 C 768.726562 379.632812 769.550781 379.929688 770.359375 380.265625 C 771.171875 380.597656 771.960938 380.972656 772.734375 381.386719 C 773.507812 381.800781 774.261719 382.25 774.988281 382.738281 C 775.71875 383.222656 776.421875 383.746094 777.097656 384.300781 C 777.777344 384.859375 778.425781 385.445312 779.046875 386.066406 C 779.664062 386.6875 780.253906 387.335938 780.808594 388.011719 C 781.367188 388.691406 781.886719 389.394531 782.375 390.121094 C 782.859375 390.851562 783.3125 391.601562 783.726562 392.375 C 784.136719 393.148438 784.511719 393.941406 784.847656 394.75 C 785.183594 395.558594 785.476562 396.386719 785.734375 397.222656 C 785.988281 398.0625 786.199219 398.914062 786.371094 399.773438 C 786.542969 400.632812 786.671875 401.496094 786.757812 402.371094 C 786.84375 403.242188 786.886719 404.117188 786.886719 404.992188 C 786.886719 405.871094 786.84375 406.746094 786.757812 407.617188 C 786.671875 408.492188 786.542969 409.355469 786.371094 410.214844 C 786.199219 411.074219 785.988281 411.925781 785.734375 412.765625 C 785.476562 413.601562 785.183594 414.429688 784.847656 415.238281 C 784.511719 416.046875 784.136719 416.839844 783.726562 417.613281 C 783.3125 418.386719 782.859375 419.136719 782.375 419.867188 C 781.886719 420.59375 781.367188 421.296875 780.808594 421.976562 C 780.253906 422.652344 779.664062 423.300781 779.046875 423.921875 C 778.425781 424.542969 777.777344 425.128906 777.097656 425.6875 C 776.421875 426.242188 775.71875 426.761719 774.988281 427.25 C 774.261719 427.738281 773.507812 428.1875 772.734375 428.601562 C 771.960938 429.015625 771.171875 429.390625 770.359375 429.722656 C 769.550781 430.058594 768.726562 430.355469 767.886719 430.609375 C 767.050781 430.863281 766.199219 431.078125 765.339844 431.246094 C 764.480469 431.417969 763.613281 431.546875 762.742188 431.632812 C 761.867188 431.71875 760.996094 431.761719 760.117188 431.761719 Z M 760.117188 431.761719 " fill-opacity="1" fill-rule="nonzero"/></g><g clip-path="url(#2fc2c09d37)"><path fill="#ffffff" d="M 331.832031 717.285156 C 330.074219 717.289062 328.332031 717.121094 326.609375 716.78125 C 324.886719 716.4375 323.210938 715.929688 321.585938 715.257812 C 319.964844 714.582031 318.421875 713.753906 316.964844 712.773438 C 315.503906 711.796875 314.15625 710.679688 312.917969 709.433594 L 27.394531 423.910156 C 26.773438 423.289062 26.183594 422.644531 25.628906 421.964844 C 25.074219 421.289062 24.550781 420.585938 24.0625 419.859375 C 23.578125 419.128906 23.125 418.378906 22.710938 417.605469 C 22.300781 416.832031 21.925781 416.042969 21.589844 415.234375 C 21.253906 414.421875 20.957031 413.597656 20.703125 412.761719 C 20.449219 411.921875 20.234375 411.074219 20.066406 410.214844 C 19.894531 409.355469 19.765625 408.488281 19.679688 407.617188 C 19.59375 406.746094 19.550781 405.871094 19.550781 404.996094 C 19.550781 404.117188 19.59375 403.242188 19.679688 402.371094 C 19.765625 401.5 19.894531 400.632812 20.066406 399.773438 C 20.234375 398.914062 20.449219 398.066406 20.703125 397.226562 C 20.957031 396.390625 21.253906 395.566406 21.589844 394.753906 C 21.925781 393.945312 22.300781 393.15625 22.710938 392.382812 C 23.125 391.609375 23.578125 390.859375 24.0625 390.128906 C 24.550781 389.402344 25.074219 388.699219 25.628906 388.023438 C 26.183594 387.34375 26.773438 386.699219 27.394531 386.078125 L 312.917969 100.554688 C 313.527344 99.898438 314.171875 99.277344 314.84375 98.683594 C 315.519531 98.09375 316.21875 97.539062 316.949219 97.015625 C 317.679688 96.496094 318.433594 96.011719 319.210938 95.566406 C 319.988281 95.121094 320.789062 94.71875 321.605469 94.351562 C 322.425781 93.988281 323.261719 93.664062 324.109375 93.382812 C 324.960938 93.101562 325.824219 92.867188 326.699219 92.671875 C 327.574219 92.476562 328.457031 92.328125 329.347656 92.222656 C 330.238281 92.117188 331.132812 92.054688 332.027344 92.039062 C 332.925781 92.023438 333.820312 92.054688 334.710938 92.128906 C 335.605469 92.203125 336.492188 92.320312 337.375 92.484375 C 338.257812 92.644531 339.128906 92.851562 339.988281 93.105469 C 340.847656 93.355469 341.695312 93.648438 342.527344 93.984375 C 343.355469 94.320312 344.167969 94.695312 344.960938 95.113281 C 345.753906 95.53125 346.527344 95.988281 347.273438 96.480469 C 348.019531 96.976562 348.742188 97.507812 349.4375 98.074219 C 350.128906 98.640625 350.792969 99.242188 351.429688 99.875 C 352.0625 100.507812 352.664062 101.171875 353.230469 101.867188 C 353.796875 102.5625 354.328125 103.28125 354.824219 104.03125 C 355.316406 104.777344 355.773438 105.546875 356.191406 106.339844 C 356.609375 107.136719 356.984375 107.945312 357.320312 108.777344 C 357.65625 109.609375 357.949219 110.457031 358.199219 111.316406 C 358.449219 112.175781 358.65625 113.046875 358.820312 113.929688 C 358.984375 114.808594 359.101562 115.699219 359.175781 116.589844 C 359.25 117.484375 359.28125 118.378906 359.265625 119.277344 C 359.25 120.171875 359.1875 121.066406 359.082031 121.957031 C 358.976562 122.84375 358.828125 123.726562 358.632812 124.601562 C 358.4375 125.476562 358.199219 126.339844 357.917969 127.191406 C 357.640625 128.042969 357.316406 128.878906 356.949219 129.699219 C 356.585938 130.515625 356.179688 131.316406 355.734375 132.09375 C 355.292969 132.871094 354.808594 133.625 354.289062 134.355469 C 353.765625 135.085938 353.210938 135.785156 352.621094 136.460938 C 352.027344 137.132812 351.40625 137.777344 350.75 138.386719 L 84.175781 404.992188 L 350.75 671.601562 C 351.679688 672.53125 352.535156 673.527344 353.316406 674.582031 C 354.101562 675.640625 354.800781 676.75 355.421875 677.910156 C 356.042969 679.070312 356.574219 680.269531 357.015625 681.507812 C 357.457031 682.746094 357.808594 684.011719 358.0625 685.300781 C 358.320312 686.59375 358.480469 687.894531 358.546875 689.207031 C 358.609375 690.523438 358.578125 691.832031 358.449219 693.144531 C 358.320312 694.453125 358.09375 695.746094 357.773438 697.019531 C 357.457031 698.296875 357.042969 699.542969 356.539062 700.757812 C 356.039062 701.972656 355.449219 703.144531 354.773438 704.273438 C 354.097656 705.402344 353.339844 706.476562 352.507812 707.492188 C 351.671875 708.507812 350.769531 709.460938 349.792969 710.34375 C 348.820312 711.226562 347.785156 712.035156 346.691406 712.765625 C 345.597656 713.496094 344.457031 714.144531 343.269531 714.707031 C 342.078125 715.273438 340.855469 715.746094 339.597656 716.128906 C 338.339844 716.511719 337.058594 716.796875 335.757812 716.992188 C 334.457031 717.1875 333.148438 717.285156 331.832031 717.285156 Z M 331.832031 717.285156 " fill-opacity="1" fill-rule="nonzero"/></g></svg>